<mxfile host="app.diagrams.net" modified="2024-02-27T16:17:26.138Z" agent="Mozilla/5.0 (Windows NT 10.0; Win64; x64) AppleWebKit/537.36 (KHTML, like Gecko) Chrome/122.0.0.0 Safari/537.36" etag="D0BP4o5IdsjCgPJ_up_o" version="23.1.7" type="device">
  <diagram id="C5RBs43oDa-KdzZeNtuy" name="Page-1">
    <mxGraphModel dx="1434" dy="746" grid="1" gridSize="10" guides="1" tooltips="1" connect="1" arrows="1" fold="1" page="1" pageScale="1" pageWidth="827" pageHeight="1169" math="0" shadow="0">
      <root>
        <mxCell id="WIyWlLk6GJQsqaUBKTNV-0" />
        <mxCell id="WIyWlLk6GJQsqaUBKTNV-1" parent="WIyWlLk6GJQsqaUBKTNV-0" />
        <mxCell id="tH8ik3wpDK_EkxMNPEzP-0" value="User" style="swimlane;fontStyle=1;align=center;verticalAlign=top;childLayout=stackLayout;horizontal=1;startSize=26;horizontalStack=0;resizeParent=1;resizeParentMax=0;resizeLast=0;collapsible=1;marginBottom=0;whiteSpace=wrap;html=1;" vertex="1" parent="WIyWlLk6GJQsqaUBKTNV-1">
          <mxGeometry x="30" y="90" width="160" height="140" as="geometry" />
        </mxCell>
        <mxCell id="tH8ik3wpDK_EkxMNPEzP-1" value="&lt;div&gt;+ UserID: String&lt;/div&gt;&lt;div&gt;+ Username: String&lt;/div&gt;&lt;div&gt;+ Password: String&lt;/div&gt;&lt;div&gt;+ UserType: Enum&lt;/div&gt;" style="text;strokeColor=none;fillColor=none;align=left;verticalAlign=top;spacingLeft=4;spacingRight=4;overflow=hidden;rotatable=0;points=[[0,0.5],[1,0.5]];portConstraint=eastwest;whiteSpace=wrap;html=1;" vertex="1" parent="tH8ik3wpDK_EkxMNPEzP-0">
          <mxGeometry y="26" width="160" height="64" as="geometry" />
        </mxCell>
        <mxCell id="tH8ik3wpDK_EkxMNPEzP-2" value="" style="line;strokeWidth=1;fillColor=none;align=left;verticalAlign=middle;spacingTop=-1;spacingLeft=3;spacingRight=3;rotatable=0;labelPosition=right;points=[];portConstraint=eastwest;strokeColor=inherit;" vertex="1" parent="tH8ik3wpDK_EkxMNPEzP-0">
          <mxGeometry y="90" width="160" height="8" as="geometry" />
        </mxCell>
        <mxCell id="tH8ik3wpDK_EkxMNPEzP-3" value="&lt;div&gt;+ Login(): Boolean&lt;/div&gt;&lt;div&gt;+ Logout(): Void&lt;/div&gt;" style="text;strokeColor=none;fillColor=none;align=left;verticalAlign=top;spacingLeft=4;spacingRight=4;overflow=hidden;rotatable=0;points=[[0,0.5],[1,0.5]];portConstraint=eastwest;whiteSpace=wrap;html=1;" vertex="1" parent="tH8ik3wpDK_EkxMNPEzP-0">
          <mxGeometry y="98" width="160" height="42" as="geometry" />
        </mxCell>
        <mxCell id="tH8ik3wpDK_EkxMNPEzP-4" value="InventoryItem" style="swimlane;fontStyle=1;align=center;verticalAlign=top;childLayout=stackLayout;horizontal=1;startSize=26;horizontalStack=0;resizeParent=1;resizeParentMax=0;resizeLast=0;collapsible=1;marginBottom=0;whiteSpace=wrap;html=1;" vertex="1" parent="WIyWlLk6GJQsqaUBKTNV-1">
          <mxGeometry x="950" y="10" width="230" height="190" as="geometry" />
        </mxCell>
        <mxCell id="tH8ik3wpDK_EkxMNPEzP-5" value="&lt;div&gt;+ ItemID: String&lt;/div&gt;&lt;div&gt;+ Category: String&lt;/div&gt;&lt;div&gt;+ IsDamaged: Boolean&lt;/div&gt;&lt;div&gt;+ IsPerishable: Boolean&lt;/div&gt;&lt;div&gt;+ ExpiryDate: Date&lt;/div&gt;&lt;div&gt;+ Quantity: Integer&lt;/div&gt;" style="text;strokeColor=none;fillColor=none;align=left;verticalAlign=top;spacingLeft=4;spacingRight=4;overflow=hidden;rotatable=0;points=[[0,0.5],[1,0.5]];portConstraint=eastwest;whiteSpace=wrap;html=1;" vertex="1" parent="tH8ik3wpDK_EkxMNPEzP-4">
          <mxGeometry y="26" width="230" height="94" as="geometry" />
        </mxCell>
        <mxCell id="tH8ik3wpDK_EkxMNPEzP-6" value="" style="line;strokeWidth=1;fillColor=none;align=left;verticalAlign=middle;spacingTop=-1;spacingLeft=3;spacingRight=3;rotatable=0;labelPosition=right;points=[];portConstraint=eastwest;strokeColor=inherit;" vertex="1" parent="tH8ik3wpDK_EkxMNPEzP-4">
          <mxGeometry y="120" width="230" height="8" as="geometry" />
        </mxCell>
        <mxCell id="tH8ik3wpDK_EkxMNPEzP-7" value="&lt;div&gt;+ UpdateQuantity(quantity: Integer): Void&lt;/div&gt;&lt;div&gt;+ MarkAsDamaged(): Void&lt;/div&gt;&lt;div&gt;+ CheckAvailability(): Boolean&lt;/div&gt;" style="text;strokeColor=none;fillColor=none;align=left;verticalAlign=top;spacingLeft=4;spacingRight=4;overflow=hidden;rotatable=0;points=[[0,0.5],[1,0.5]];portConstraint=eastwest;whiteSpace=wrap;html=1;" vertex="1" parent="tH8ik3wpDK_EkxMNPEzP-4">
          <mxGeometry y="128" width="230" height="62" as="geometry" />
        </mxCell>
        <mxCell id="tH8ik3wpDK_EkxMNPEzP-8" value="InventoryManagement" style="swimlane;fontStyle=1;align=center;verticalAlign=top;childLayout=stackLayout;horizontal=1;startSize=26;horizontalStack=0;resizeParent=1;resizeParentMax=0;resizeLast=0;collapsible=1;marginBottom=0;whiteSpace=wrap;html=1;" vertex="1" parent="WIyWlLk6GJQsqaUBKTNV-1">
          <mxGeometry x="414" y="10" width="410" height="140" as="geometry" />
        </mxCell>
        <mxCell id="tH8ik3wpDK_EkxMNPEzP-9" value="+ InventoryList: List&amp;lt;InventoryItem&amp;gt;" style="text;strokeColor=none;fillColor=none;align=left;verticalAlign=top;spacingLeft=4;spacingRight=4;overflow=hidden;rotatable=0;points=[[0,0.5],[1,0.5]];portConstraint=eastwest;whiteSpace=wrap;html=1;" vertex="1" parent="tH8ik3wpDK_EkxMNPEzP-8">
          <mxGeometry y="26" width="410" height="26" as="geometry" />
        </mxCell>
        <mxCell id="tH8ik3wpDK_EkxMNPEzP-10" value="" style="line;strokeWidth=1;fillColor=none;align=left;verticalAlign=middle;spacingTop=-1;spacingLeft=3;spacingRight=3;rotatable=0;labelPosition=right;points=[];portConstraint=eastwest;strokeColor=inherit;" vertex="1" parent="tH8ik3wpDK_EkxMNPEzP-8">
          <mxGeometry y="52" width="410" height="8" as="geometry" />
        </mxCell>
        <mxCell id="tH8ik3wpDK_EkxMNPEzP-11" value="&lt;div&gt;+ AddItem(item: InventoryItem): Void&lt;/div&gt;&lt;div&gt;+ RemoveItem(itemID: String): Void&lt;/div&gt;&lt;div&gt;+ UpdateItem(item: InventoryItem): Void&lt;/div&gt;&lt;div&gt;+ UploadInventoryFile(file: File): Void&lt;/div&gt;&lt;div&gt;+ GenerateReport(startDate: Date, endDate: Date): List&amp;lt;InventoryItem&amp;gt;&lt;/div&gt;" style="text;strokeColor=none;fillColor=none;align=left;verticalAlign=top;spacingLeft=4;spacingRight=4;overflow=hidden;rotatable=0;points=[[0,0.5],[1,0.5]];portConstraint=eastwest;whiteSpace=wrap;html=1;" vertex="1" parent="tH8ik3wpDK_EkxMNPEzP-8">
          <mxGeometry y="60" width="410" height="80" as="geometry" />
        </mxCell>
        <mxCell id="tH8ik3wpDK_EkxMNPEzP-12" value="Delivery" style="swimlane;fontStyle=1;align=center;verticalAlign=top;childLayout=stackLayout;horizontal=1;startSize=26;horizontalStack=0;resizeParent=1;resizeParentMax=0;resizeLast=0;collapsible=1;marginBottom=0;whiteSpace=wrap;html=1;" vertex="1" parent="WIyWlLk6GJQsqaUBKTNV-1">
          <mxGeometry x="930" y="240" width="360" height="220" as="geometry" />
        </mxCell>
        <mxCell id="tH8ik3wpDK_EkxMNPEzP-13" value="&lt;div&gt;+ DeliveryID: String&lt;/div&gt;&lt;div&gt;+ DeliveryAgentID: String&lt;/div&gt;&lt;div&gt;+ ItemID: String&lt;/div&gt;&lt;div&gt;+ CustomerName: String&lt;/div&gt;&lt;div&gt;+ DeliveryStatus: Enum (Pending, Delivered, Missed, Damaged)&lt;/div&gt;&lt;div&gt;+ DeliveryDate: Date&lt;/div&gt;&lt;div&gt;+ Signature: String&lt;/div&gt;" style="text;strokeColor=none;fillColor=none;align=left;verticalAlign=top;spacingLeft=4;spacingRight=4;overflow=hidden;rotatable=0;points=[[0,0.5],[1,0.5]];portConstraint=eastwest;whiteSpace=wrap;html=1;" vertex="1" parent="tH8ik3wpDK_EkxMNPEzP-12">
          <mxGeometry y="26" width="360" height="114" as="geometry" />
        </mxCell>
        <mxCell id="tH8ik3wpDK_EkxMNPEzP-14" value="" style="line;strokeWidth=1;fillColor=none;align=left;verticalAlign=middle;spacingTop=-1;spacingLeft=3;spacingRight=3;rotatable=0;labelPosition=right;points=[];portConstraint=eastwest;strokeColor=inherit;" vertex="1" parent="tH8ik3wpDK_EkxMNPEzP-12">
          <mxGeometry y="140" width="360" height="8" as="geometry" />
        </mxCell>
        <mxCell id="tH8ik3wpDK_EkxMNPEzP-15" value="&lt;div&gt;+ UpdateStatus(status: Enum): Void&lt;/div&gt;&lt;div&gt;+ CaptureSignature(signature: String): Void&lt;/div&gt;&lt;div&gt;+ MarkAsMissed(): Void&lt;/div&gt;&lt;div&gt;+ MarkAsDamaged(): Void&lt;/div&gt;" style="text;strokeColor=none;fillColor=none;align=left;verticalAlign=top;spacingLeft=4;spacingRight=4;overflow=hidden;rotatable=0;points=[[0,0.5],[1,0.5]];portConstraint=eastwest;whiteSpace=wrap;html=1;" vertex="1" parent="tH8ik3wpDK_EkxMNPEzP-12">
          <mxGeometry y="148" width="360" height="72" as="geometry" />
        </mxCell>
        <mxCell id="tH8ik3wpDK_EkxMNPEzP-16" value="DeliveryAgent" style="swimlane;fontStyle=1;align=center;verticalAlign=top;childLayout=stackLayout;horizontal=1;startSize=26;horizontalStack=0;resizeParent=1;resizeParentMax=0;resizeLast=0;collapsible=1;marginBottom=0;whiteSpace=wrap;html=1;" vertex="1" parent="WIyWlLk6GJQsqaUBKTNV-1">
          <mxGeometry x="414" y="210" width="350" height="130" as="geometry" />
        </mxCell>
        <mxCell id="tH8ik3wpDK_EkxMNPEzP-17" value="&lt;div&gt;+ AgentID: String&lt;/div&gt;&lt;div&gt;+ Name: String&lt;/div&gt;&lt;div&gt;+ AssignedDeliveries: List&amp;lt;Delivery&amp;gt;&lt;/div&gt;" style="text;strokeColor=none;fillColor=none;align=left;verticalAlign=top;spacingLeft=4;spacingRight=4;overflow=hidden;rotatable=0;points=[[0,0.5],[1,0.5]];portConstraint=eastwest;whiteSpace=wrap;html=1;" vertex="1" parent="tH8ik3wpDK_EkxMNPEzP-16">
          <mxGeometry y="26" width="350" height="54" as="geometry" />
        </mxCell>
        <mxCell id="tH8ik3wpDK_EkxMNPEzP-18" value="" style="line;strokeWidth=1;fillColor=none;align=left;verticalAlign=middle;spacingTop=-1;spacingLeft=3;spacingRight=3;rotatable=0;labelPosition=right;points=[];portConstraint=eastwest;strokeColor=inherit;" vertex="1" parent="tH8ik3wpDK_EkxMNPEzP-16">
          <mxGeometry y="80" width="350" height="8" as="geometry" />
        </mxCell>
        <mxCell id="tH8ik3wpDK_EkxMNPEzP-19" value="&lt;div&gt;+ ViewTodaysDeliveries(): List&amp;lt;Delivery&amp;gt;&lt;/div&gt;&lt;div&gt;+ UpdateDeliveryStatus(deliveryID: String, status: Enum): Void&lt;/div&gt;" style="text;strokeColor=none;fillColor=none;align=left;verticalAlign=top;spacingLeft=4;spacingRight=4;overflow=hidden;rotatable=0;points=[[0,0.5],[1,0.5]];portConstraint=eastwest;whiteSpace=wrap;html=1;" vertex="1" parent="tH8ik3wpDK_EkxMNPEzP-16">
          <mxGeometry y="88" width="350" height="42" as="geometry" />
        </mxCell>
        <mxCell id="tH8ik3wpDK_EkxMNPEzP-20" value="Report" style="swimlane;fontStyle=1;align=center;verticalAlign=top;childLayout=stackLayout;horizontal=1;startSize=26;horizontalStack=0;resizeParent=1;resizeParentMax=0;resizeLast=0;collapsible=1;marginBottom=0;whiteSpace=wrap;html=1;" vertex="1" parent="WIyWlLk6GJQsqaUBKTNV-1">
          <mxGeometry x="1011" y="510" width="230" height="124" as="geometry" />
        </mxCell>
        <mxCell id="tH8ik3wpDK_EkxMNPEzP-21" value="&lt;div&gt;+ ReportID: String&lt;/div&gt;&lt;div&gt;+ ReportType: Enum (DeliverySummary, + DamagedGoods, PendingDeliveries)&lt;/div&gt;&lt;div&gt;+ DateRange: String&lt;/div&gt;" style="text;strokeColor=none;fillColor=none;align=left;verticalAlign=top;spacingLeft=4;spacingRight=4;overflow=hidden;rotatable=0;points=[[0,0.5],[1,0.5]];portConstraint=eastwest;whiteSpace=wrap;html=1;" vertex="1" parent="tH8ik3wpDK_EkxMNPEzP-20">
          <mxGeometry y="26" width="230" height="64" as="geometry" />
        </mxCell>
        <mxCell id="tH8ik3wpDK_EkxMNPEzP-22" value="" style="line;strokeWidth=1;fillColor=none;align=left;verticalAlign=middle;spacingTop=-1;spacingLeft=3;spacingRight=3;rotatable=0;labelPosition=right;points=[];portConstraint=eastwest;strokeColor=inherit;" vertex="1" parent="tH8ik3wpDK_EkxMNPEzP-20">
          <mxGeometry y="90" width="230" height="8" as="geometry" />
        </mxCell>
        <mxCell id="tH8ik3wpDK_EkxMNPEzP-23" value="+ GenerateReport(): String or PDF/Excel" style="text;strokeColor=none;fillColor=none;align=left;verticalAlign=top;spacingLeft=4;spacingRight=4;overflow=hidden;rotatable=0;points=[[0,0.5],[1,0.5]];portConstraint=eastwest;whiteSpace=wrap;html=1;" vertex="1" parent="tH8ik3wpDK_EkxMNPEzP-20">
          <mxGeometry y="98" width="230" height="26" as="geometry" />
        </mxCell>
        <mxCell id="tH8ik3wpDK_EkxMNPEzP-25" value="1" style="endArrow=open;html=1;endSize=12;startArrow=diamondThin;startSize=14;startFill=0;edgeStyle=orthogonalEdgeStyle;align=left;verticalAlign=bottom;rounded=0;exitX=1;exitY=0.5;exitDx=0;exitDy=0;entryX=0.012;entryY=0;entryDx=0;entryDy=0;entryPerimeter=0;" edge="1" parent="WIyWlLk6GJQsqaUBKTNV-1" source="tH8ik3wpDK_EkxMNPEzP-1" target="tH8ik3wpDK_EkxMNPEzP-11">
          <mxGeometry x="-1" y="3" relative="1" as="geometry">
            <mxPoint x="240" y="250" as="sourcePoint" />
            <mxPoint x="490" y="310" as="targetPoint" />
            <Array as="points">
              <mxPoint x="302" y="148" />
              <mxPoint x="302" y="70" />
            </Array>
          </mxGeometry>
        </mxCell>
        <mxCell id="tH8ik3wpDK_EkxMNPEzP-26" value="1" style="endArrow=open;html=1;endSize=12;startArrow=diamondThin;startSize=14;startFill=0;edgeStyle=orthogonalEdgeStyle;align=left;verticalAlign=bottom;rounded=0;exitX=1.006;exitY=1.078;exitDx=0;exitDy=0;exitPerimeter=0;entryX=0;entryY=0.5;entryDx=0;entryDy=0;" edge="1" parent="WIyWlLk6GJQsqaUBKTNV-1" source="tH8ik3wpDK_EkxMNPEzP-1" target="tH8ik3wpDK_EkxMNPEzP-16">
          <mxGeometry x="-1" y="3" relative="1" as="geometry">
            <mxPoint x="330" y="310" as="sourcePoint" />
            <mxPoint x="490" y="310" as="targetPoint" />
          </mxGeometry>
        </mxCell>
        <mxCell id="tH8ik3wpDK_EkxMNPEzP-27" value="1" style="endArrow=open;html=1;endSize=12;startArrow=diamondThin;startSize=14;startFill=1;edgeStyle=orthogonalEdgeStyle;align=left;verticalAlign=bottom;rounded=0;" edge="1" parent="WIyWlLk6GJQsqaUBKTNV-1">
          <mxGeometry x="-1" y="3" relative="1" as="geometry">
            <mxPoint x="820" y="89" as="sourcePoint" />
            <mxPoint x="950" y="90" as="targetPoint" />
          </mxGeometry>
        </mxCell>
        <mxCell id="tH8ik3wpDK_EkxMNPEzP-28" value="" style="endArrow=none;html=1;edgeStyle=orthogonalEdgeStyle;rounded=0;" edge="1" parent="WIyWlLk6GJQsqaUBKTNV-1">
          <mxGeometry relative="1" as="geometry">
            <mxPoint x="764" y="274.5" as="sourcePoint" />
            <mxPoint x="924" y="274.5" as="targetPoint" />
          </mxGeometry>
        </mxCell>
        <mxCell id="tH8ik3wpDK_EkxMNPEzP-32" value="" style="endArrow=none;html=1;edgeStyle=orthogonalEdgeStyle;rounded=0;entryX=0.442;entryY=0;entryDx=0;entryDy=0;entryPerimeter=0;" edge="1" parent="WIyWlLk6GJQsqaUBKTNV-1" target="tH8ik3wpDK_EkxMNPEzP-12">
          <mxGeometry relative="1" as="geometry">
            <mxPoint x="1090" y="200" as="sourcePoint" />
            <mxPoint x="1090" y="230" as="targetPoint" />
            <Array as="points">
              <mxPoint x="1090" y="221" />
              <mxPoint x="1089" y="221" />
            </Array>
          </mxGeometry>
        </mxCell>
        <mxCell id="tH8ik3wpDK_EkxMNPEzP-37" value="" style="endArrow=none;html=1;edgeStyle=orthogonalEdgeStyle;rounded=0;" edge="1" parent="WIyWlLk6GJQsqaUBKTNV-1">
          <mxGeometry relative="1" as="geometry">
            <mxPoint x="1120" y="460" as="sourcePoint" />
            <mxPoint x="1120" y="510" as="targetPoint" />
          </mxGeometry>
        </mxCell>
      </root>
    </mxGraphModel>
  </diagram>
</mxfile>
